<svg style="display: none;" xmlns="http://www.w3.org/2000/svg">
  <!-- CARRITO DE COMPRAS -->
  <symbol id="icon-cart" viewBox="0 0 24 24">
    <circle cx="9" cy="21" r="1"/>
    <circle cx="20" cy="21" r="1"/>
    <path d="M1 1h4l2.68 13.39a2 2 0 0 0 2 1.61h9.72a2 2 0 0 0 2-1.61L23 6H6" fill="none" stroke="currentColor" stroke-width="2"/>
  </symbol>

  <!-- CHECKMARK / ÉXITO -->
  <symbol id="icon-check" viewBox="0 0 24 24">
    <polyline points="20 6 9 17 4 12" fill="none" stroke="currentColor" stroke-width="2" stroke-linecap="round" stroke-linejoin="round"/>
  </symbol>

  <!-- ERROR / CANCELAR -->
  <symbol id="icon-error" viewBox="0 0 24 24">
    <circle cx="12" cy="12" r="10" fill="none" stroke="currentColor" stroke-width="2"/>
    <line x1="15" y1="9" x2="9" y2="15" stroke="currentColor" stroke-width="2" stroke-linecap="round"/>
    <line x1="9" y1="9" x2="15" y2="15" stroke="currentColor" stroke-width="2" stroke-linecap="round"/>
  </symbol>

  <!-- UBICACIÓN -->
  <symbol id="icon-location" viewBox="0 0 24 24">
    <path d="M21 10c0 7-9 13-9 13s-9-6-9-13a9 9 0 0 1 18 0z" fill="none" stroke="currentColor" stroke-width="2"/>
    <circle cx="12" cy="10" r="3" fill="current"/>
  </symbol>

  <!-- REFRESH / RENOVAR -->
  <symbol id="icon-refresh" viewBox="0 0 24 24">
    <circle cx="12" cy="5" r="3"/>
    <path d="M4 10a8 8 0 0 1 16 0v5a8 8 0 0 1-16 0z" fill="none" stroke="currentColor" stroke-width="2"/>
  </symbol>

  <!-- PAQUETE -->
  <symbol id="icon-package" viewBox="0 0 24 24">
    <line x1="16.5" y1="9.4" x2="7.5" y2="4.21"/>
    <path d="M21 16V8a2 2 0 0 0-1-1.73l-7-4a2 2 0 0 0-2 0l-7 4A2 2 0 0 0 3 8v8a2 2 0 0 0 1 1.73l7 4a2 2 0 0 0 2 0l7-4A2 2 0 0 0 21 16z" fill="none" stroke="currentColor" stroke-width="2"/>
    <polyline points="3.27 6.96 12 12.01 20.73 6.96" fill="none" stroke="currentColor" stroke-width="2"/>
    <line x1="12" y1="22.08" x2="12" y2="12" stroke="currentColor" stroke-width="2"/>
  </symbol>

  <!-- RELOJ / TIEMPO -->
  <symbol id="icon-clock" viewBox="0 0 24 24">
    <circle cx="12" cy="12" r="10" fill="none" stroke="currentColor" stroke-width="2"/>
    <polyline points="12 6 12 12 16 14" fill="none" stroke="currentColor" stroke-width="2" stroke-linecap="round"/>
  </symbol>

  <!-- ENGRANAJE / CONFIGURACIÓN -->
  <symbol id="icon-settings" viewBox="0 0 24 24">
    <circle cx="12" cy="12" r="3" fill="none" stroke="currentColor" stroke-width="2"/>
    <path d="M12 1v6m0 6v6M4.22 4.22l4.24 4.24m0 5.08l-4.24 4.24M1 12h6m6 0h6M4.22 19.78l4.24-4.24m5.08 0l4.24 4.24M19.78 19.78l-4.24-4.24m0-5.08l4.24-4.24M23 12h-6m-6 0H5M19.78 4.22l-4.24 4.24m-5.08 0l-4.24-4.24" fill="none" stroke="currentColor" stroke-width="2"/>
  </symbol>

  <!-- GRÁFICO / ESTADÍSTICAS -->
  <symbol id="icon-chart" viewBox="0 0 24 24">
    <polyline points="23 6 13.5 15.5 8.5 10.5 1 17" fill="none" stroke="currentColor" stroke-width="2" stroke-linecap="round" stroke-linejoin="round"/>
    <polyline points="17 6 23 6 23 12" fill="none" stroke="currentColor" stroke-width="2" stroke-linecap="round" stroke-linejoin="round"/>
  </symbol>

  <!-- ENTREGA / CAMIÓN -->
  <symbol id="icon-truck" viewBox="0 0 24 24">
    <path d="M14 18V6a2 2 0 0 0-2-2H4a2 2 0 0 0-2 2v12a2 2 0 0 0 2 2h8a2 2 0 0 0 2-2z" fill="none" stroke="currentColor" stroke-width="2"/>
    <line x1="6" y1="9" x2="14" y2="9" stroke="currentColor" stroke-width="2"/>
    <circle cx="6" cy="20" r="2" fill="currentColor"/>
    <circle cx="14" cy="20" r="2" fill="currentColor"/>
  </symbol>

  <!-- ALERTA -->
  <symbol id="icon-alert" viewBox="0 0 24 24">
    <path d="M10.29 3.86L1.82 18a2 2 0 0 0 1.71 3.04h16.94a2 2 0 0 0 1.71-3.04l-8.47-14.14a2 2 0 0 0-3.42 0z" fill="none" stroke="currentColor" stroke-width="2"/>
    <line x1="12" y1="9" x2="12" y2="13" stroke="currentColor" stroke-width="2"/>
    <line x1="12" y1="17" x2="12.01" y2="17" stroke="currentColor" stroke-width="2"/>
  </symbol>

  <!-- DESCARGA -->
  <symbol id="icon-download" viewBox="0 0 24 24">
    <path d="M21 15v4a2 2 0 0 1-2 2H5a2 2 0 0 1-2-2v-4" fill="none" stroke="currentColor" stroke-width="2" stroke-linecap="round"/>
    <polyline points="7 10 12 15 17 10" fill="none" stroke="currentColor" stroke-width="2" stroke-linecap="round"/>
    <line x1="12" y1="15" x2="12" y2="3" stroke="currentColor" stroke-width="2" stroke-linecap="round"/>
  </symbol>

  <!-- USUARIO -->
  <symbol id="icon-user" viewBox="0 0 24 24">
    <path d="M20 21v-2a4 4 0 0 0-4-4H8a4 4 0 0 0-4 4v2" fill="none" stroke="currentColor" stroke-width="2" stroke-linecap="round" stroke-linejoin="round"/>
    <circle cx="12" cy="7" r="4" fill="none" stroke="currentColor" stroke-width="2" stroke-linecap="round" stroke-linejoin="round"/>
  </symbol>

  <!-- BÚSQUEDA -->
  <symbol id="icon-search" viewBox="0 0 24 24">
    <circle cx="11" cy="11" r="8" fill="none" stroke="currentColor" stroke-width="2"/>
    <path d="m21 21-4.35-4.35" fill="none" stroke="currentColor" stroke-width="2" stroke-linecap="round"/>
  </symbol>

  <!-- CORREO / EMAIL -->
  <symbol id="icon-mail" viewBox="0 0 24 24">
    <rect x="2" y="4" width="20" height="16" rx="2" fill="none" stroke="currentColor" stroke-width="2"/>
    <path d="M2 6l10 7 10-7" fill="none" stroke="currentColor" stroke-width="2"/>
  </symbol>
</svg>
